 http://www.scenespeeds.com/

Description

Plot:
Ventriloquist and comic Jeff Dunham takes to the stage to provide fresh comedic material with his classic puppets Walter, Peanut, Jose Jalape o and Achmed, as well as with two never-before-seen characters with their own unique quirks

General
Complete name: Jeff.Dunham.Controlled.Chaos.Uncensored.2011.DVDRiP.AC3-5.1.XviD-SiC.avi
Format: AVI
Format/Info: Audio Video Interleave
File size: 1.37 GiB
Duration: 1h 37mn
Overall bit rate: 2 017 Kbps

Video
ID: 0
Format: MPEG-4 Visual
Format profile: Advanced Simple@L5
Format settings, BVOP: 2
Format settings, QPel: No
Format settings, GMC: No warppoints
Format settings, Matrix: Default (H.263)
Muxing mode: Packed bitstream
Codec ID: XVID
Codec ID/Hint: XviD
Duration: 1h 37mn
Bit rate: 1 624 Kbps
Width: 720 pixels
Height: 400 pixels
Display aspect ratio: 16:9
Frame rate: 29.970 fps
Color space: YUV
Chroma subsampling: 4:2:0
Bit depth: 8 bits
Scan type: Progressive
Compression mode: Lossy
Bits/(Pixel*Frame): 0.188
Stream size: 1.10 GiB (81%)
Writing library: XviD 64

Audio
ID: 1
Format: AC-3
Format/Info: Audio Coding 3
Mode extension: CM (complete main)
Codec ID: 2000
Duration: 1h 37mn
Bit rate mode: Constant
Bit rate: 384 Kbps
Channel(s): 6 channels
Channel positions: Front: L C R, Side: L R, LFE
Sampling rate: 48.0 KHz
Bit depth: 16 bits
Compression mode: Lossy
Stream size: 266 MiB (19%)
Alignment: Aligned on interleaves
Interleave, duration: 64 ms (1.92 video frames)
Interleave, preload duration: 192 ms
Title: Jeff.Dunham T82 3_2ch 448Kbps DELAY 0ms_new

 
http://www.scenespeeds.com/	